<?xml version="1.0" standalone="no"?>
<!DOCTYPE svg PUBLIC "-//W3C//DTD SVG 20010904//EN" "http://www.w3.org/TR/2001/REC-SVG-20010904/DTD/svg10.dtd">
<svg version="1.0" xmlns="http://www.w3.org/2000/svg" width="140" height="154" viewBox="0 0 140 154"
    preserveAspectRatio="xMidYMid meet">

    <path fill-rule="evenodd" clip-rule="evenodd"
        d="M 64.55 0.59 c -0.49 0.23 -0.88 0.63 -1.12 1.16 c -0.16 0.36 -0.18 0.88 -0.23 5.79 l -0.05 5.39 l -1.58 0.33 c -16.92 3.52 -29.09 16.76 -32.76 35.64 c -0.36 1.85 -0.64 3.82 -0.88 6.2 c -0.25 2.5 -0.25 9.4 0 11.9 c 0.75 7.37 2.4 13.33 5.27 19.05 c 3.95 7.87 9.68 13.81 17.04 17.66 c 3.73 1.95 7.86 3.28 12.59 4.04 l 0.37 0.06 l 0 5.43 c 0 5.89 0.01 6.01 0.55 6.73 c 0.33 0.43 1.15 0.83 1.7 0.83 c 0.51 0 1.35 -0.39 1.64 -0.76 c 0.58 -0.73 0.56 -0.54 0.59 -6.42 l 0.03 -5.42 l 1.87 0 c 1.03 0 2.11 -0.03 2.4 -0.06 l 0.52 -0.07 l 0 5.47 c 0 6.03 -0.02 5.87 0.63 6.55 c 1.12 1.17 2.87 0.83 3.56 -0.69 c 0.2 -0.44 0.21 -0.63 0.21 -6.13 c 0 -3.12 0.02 -5.67 0.04 -5.67 c 0.21 0 2.48 -0.48 3.61 -0.76 c 5.76 -1.44 11 -4.06 15.6 -7.78 c 1.53 -1.24 4.4 -4.15 5.69 -5.76 c 4.69 -5.88 7.75 -12.84 9.4 -21.36 c 1.11 -5.75 1.42 -13.11 0.8 -19.19 c -2.17 -21.39 -14.75 -36.41 -33.24 -39.7 c -0.8 -0.14 -1.55 -0.28 -1.67 -0.31 l -0.23 -0.04 l 0 -5.19 c 0 -5.56 0 -5.62 -0.52 -6.31 c -0.12 -0.17 -0.46 -0.42 -0.75 -0.57 c -1.06 -0.51 -2.3 -0.1 -2.85 0.96 l -0.28 0.53 l 0 5.09 l 0 5.09 l -1.42 0 c -0.79 0 -1.87 0.03 -2.4 0.07 l -0.97 0.06 l -0.03 -5.14 c -0.03 -4.7 -0.05 -5.17 -0.21 -5.54 c -0.38 -0.84 -1.13 -1.35 -2.02 -1.35 c -0.28 0 -0.68 0.09 -0.9 0.19 z m 7.64 21.87 l 0.31 0.06 l 0 37.74 l 0 37.74 l -0.22 0.05 c -0.13 0.03 -1.2 0.04 -2.38 0.03 l -2.15 -0.03 l -0.03 -37.77 l -0.02 -37.77 l 0.22 -0.04 c 0.37 -0.07 3.93 -0.08 4.27 -0.01 z m 6.61 1.31 c 2.57 0.84 5.42 2.41 7.68 4.22 c 5.82 4.65 10.12 12.42 11.96 21.61 c 1.49 7.41 1.3 15.96 -0.51 23.4 c -2.74 11.27 -9.04 19.57 -17.58 23.15 c -0.87 0.37 -3.19 1.15 -3.41 1.15 c -0.02 0 -0.04 -16.67 -0.04 -37.05 l 0 -37.05 l 0.28 0.06 c 0.15 0.03 0.88 0.26 1.62 0.51 z m -15.6 36.53 c 0 20.35 -0.01 37 -0.03 37 c -0.02 0 -0.41 -0.11 -0.88 -0.25 c -3.94 -1.18 -7.67 -3.43 -10.74 -6.5 c -3.28 -3.27 -5.71 -7.07 -7.59 -11.84 c -3.98 -10.09 -4.32 -23.16 -0.89 -34.21 c 2.94 -9.48 8.61 -16.53 15.95 -19.83 c 1.22 -0.54 3.59 -1.36 3.96 -1.37 l 0.22 0 l 0 37 z M 12.09 127.56 c -5.62 1.01 -9.28 5.42 -9.9 11.9 c -0.43 4.57 0.99 8.97 3.77 11.64 c 1.39 1.34 2.78 2.14 4.61 2.65 c 0.9 0.26 0.96 0.26 3.55 0.23 l 2.63 -0.04 l 0.91 -0.31 c 4.51 -1.55 7.28 -5.16 8.06 -10.49 c 0.18 -1.29 0.16 -4.26 -0.05 -5.44 c -0.55 -3.05 -1.67 -5.33 -3.51 -7.16 c -1.67 -1.65 -3.46 -2.57 -5.86 -2.98 c -1.13 -0.19 -3.15 -0.2 -4.21 0 z m 3.89 2.88 c 2.23 0.61 3.91 2.14 5.08 4.6 c 0.87 1.84 1.19 3.64 1.11 6.24 c -0.08 2.58 -0.51 4.3 -1.58 6.18 c -0.56 1.01 -1.88 2.36 -2.84 2.92 c -2.2 1.28 -4.97 1.32 -7.25 0.11 c -2.22 -1.18 -3.8 -3.64 -4.47 -6.95 c -0.24 -1.23 -0.24 -4.12 0 -5.39 c 0.76 -3.91 2.67 -6.54 5.45 -7.51 c 0.38 -0.13 0.94 -0.28 1.23 -0.33 c 0.71 -0.13 2.6 -0.05 3.27 0.13 z M 62.94 127.99 c -0.74 0.34 -1.15 1.02 -1.15 1.91 c 0 1.26 0.83 2.1 2.07 2.1 c 0.93 0 1.75 -0.51 2.02 -1.23 c 0.27 -0.7 0.06 -1.84 -0.42 -2.35 c -0.57 -0.62 -1.7 -0.81 -2.52 -0.43 z M 37.21 134.9 c -0.4 0.11 -1.01 0.34 -1.35 0.52 c -0.74 0.39 -1.93 1.49 -2.39 2.21 l -0.34 0.52 l -0.06 -1.05 c -0.04 -0.58 -0.07 -1.26 -0.08 -1.53 l -0.01 -0.48 l -1.52 0.03 l -1.53 0.03 l 0.03 0.25 c 0.02 0.14 0.06 4.34 0.09 9.32 l 0.05 9.08 l 1.69 0 l 1.69 0 l 0 -5.98 c 0 -4.97 0.03 -6.07 0.15 -6.55 c 0.37 -1.43 1.37 -2.72 2.53 -3.3 c 0.62 -0.3 0.72 -0.32 1.76 -0.32 c 0.95 0 1.16 0.03 1.53 0.23 c 0.93 0.5 1.59 1.34 1.98 2.52 c 0.17 0.51 0.19 1.12 0.24 6.95 l 0.05 6.4 l 1.68 0.03 l 1.67 0.02 l 0 -5.87 c 0.01 -6.53 0.04 -6.96 0.61 -8.02 c 0.42 -0.8 1.14 -1.54 1.92 -1.94 c 0.59 -0.31 0.67 -0.32 1.77 -0.32 c 1.05 0 1.19 0.02 1.65 0.27 c 0.58 0.3 1.24 0.97 1.54 1.57 c 0.11 0.22 0.3 0.73 0.43 1.13 c 0.22 0.73 0.22 0.86 0.26 6.96 l 0.03 6.23 l 1.7 0 l 1.69 0 l 0 -6.08 c -0.01 -6.47 -0.05 -7.22 -0.5 -8.62 c -0.75 -2.26 -2.24 -3.74 -4.3 -4.26 c -0.96 -0.24 -2.6 -0.16 -3.63 0.2 c -1.38 0.46 -2.55 1.38 -3.47 2.69 c -0.44 0.61 -0.48 0.65 -0.54 0.43 c -0.03 -0.13 -0.29 -0.58 -0.57 -1 c -0.8 -1.19 -1.87 -1.96 -3.24 -2.31 c -0.82 -0.21 -2.32 -0.19 -3.23 0.05 z M 78.5 134.8 c -4.32 0.56 -7.29 3.16 -8.32 7.27 c -0.32 1.27 -0.32 3.89 0 5.16 c 0.75 3 2.55 5.17 5.12 6.2 c 1.38 0.54 1.74 0.59 4.34 0.55 c 2.56 -0.05 3.09 -0.13 4.44 -0.69 c 0.45 -0.19 0.53 -0.26 0.48 -0.43 c -0.03 -0.12 -0.15 -0.66 -0.27 -1.21 c -0.12 -0.55 -0.25 -1.04 -0.29 -1.08 c -0.04 -0.04 -0.53 0.08 -1.11 0.27 c -1.68 0.56 -3.6 0.66 -5.04 0.25 c -1.94 -0.54 -3.59 -2.31 -4.16 -4.46 c -0.29 -1.05 -0.31 -2.95 -0.06 -4.08 c 0.55 -2.42 2.19 -4.19 4.48 -4.81 c 0.46 -0.13 1 -0.18 1.94 -0.17 c 1.42 0 2.31 0.16 3.24 0.59 c 0.3 0.13 0.56 0.22 0.58 0.2 c 0.11 -0.1 0.8 -2.62 0.74 -2.67 c -0.14 -0.15 -1.54 -0.59 -2.33 -0.74 c -1 -0.19 -2.89 -0.27 -3.78 -0.15 z M 95.53 134.85 c -1.6 0.43 -3.19 1.91 -3.74 3.47 c -0.21 0.61 -0.29 0.26 -0.29 -1.32 c 0 -0.8 -0.03 -1.55 -0.06 -1.68 c -0.06 -0.22 -0.09 -0.22 -1.53 -0.22 l -1.46 0 l 0.03 9.22 c 0.01 5.08 0.05 9.29 0.07 9.35 c 0.03 0.1 0.47 0.13 1.74 0.13 l 1.7 0 l 0.03 -5.78 l 0.03 -5.77 l 0.28 -0.81 c 0.49 -1.46 1.36 -2.52 2.52 -3.1 c 0.56 -0.27 0.68 -0.29 1.77 -0.29 l 1.18 0 l 0 -1.61 c 0 -1.59 0 -1.62 -0.22 -1.68 c -0.4 -0.1 -1.51 -0.05 -2.05 0.09 z M 107.3 134.77 c -1.22 0.19 -2.59 0.67 -3.58 1.25 c -0.78 0.45 -2.38 2.08 -2.85 2.88 c -0.51 0.89 -0.95 2.07 -1.2 3.2 c -0.29 1.36 -0.28 3.68 0.01 4.98 c 0.46 1.99 1.26 3.46 2.6 4.74 c 0.96 0.92 1.87 1.47 3.08 1.87 c 0.91 0.31 0.95 0.31 3.01 0.31 c 2.38 0 2.97 -0.11 4.37 -0.81 c 1.03 -0.51 1.58 -0.93 2.43 -1.83 c 1.13 -1.18 1.77 -2.43 2.26 -4.35 c 0.28 -1.14 0.31 -3.95 0.05 -5.11 c -0.24 -1.08 -0.71 -2.33 -1.2 -3.14 c -0.54 -0.92 -1.92 -2.31 -2.83 -2.84 c -0.79 -0.47 -2.19 -0.96 -3.15 -1.11 c -0.62 -0.1 -2.46 -0.13 -3 -0.04 z m 2.31 2.63 c 1.93 0.36 3.51 2.03 4.21 4.47 c 0.2 0.68 0.23 1.01 0.23 2.53 c 0 2.04 -0.1 2.54 -0.81 3.99 c -1.26 2.57 -3.84 3.75 -6.32 2.9 c -1.26 -0.43 -2.42 -1.53 -3.11 -2.92 c -0.66 -1.35 -0.76 -1.86 -0.76 -3.92 c 0 -2.08 0.15 -2.79 0.87 -4.17 c 1.16 -2.24 3.3 -3.32 5.69 -2.88 z M 129.65 134.84 c -1.74 0.4 -3.16 1.3 -4.11 2.58 c -0.23 0.31 -0.44 0.54 -0.48 0.51 c -0.03 -0.04 -0.06 -0.27 -0.06 -0.53 c 0 -0.26 -0.03 -0.88 -0.06 -1.38 l -0.07 -0.92 l -1.51 0 l -1.51 0 l 0.03 9.22 c 0.01 5.08 0.05 9.29 0.07 9.35 c 0.03 0.1 0.47 0.13 1.74 0.13 l 1.7 0 l 0.03 -6.18 c 0.03 -6.11 0.04 -6.18 0.26 -6.76 c 0.58 -1.55 1.77 -2.69 3.26 -3.11 c 0.94 -0.27 2.27 -0.17 3.1 0.24 c 1.02 0.5 1.66 1.34 2.07 2.71 c 0.22 0.74 0.23 0.86 0.27 6.93 l 0.03 6.17 l 1.72 -0.02 l 1.72 -0.03 l 0.03 -5.55 c 0.02 -3.35 -0.01 -5.99 -0.08 -6.66 c -0.21 -2.22 -0.77 -3.66 -1.91 -4.87 c -1.23 -1.32 -2.49 -1.87 -4.44 -1.93 c -0.8 -0.02 -1.4 0.01 -1.8 0.1 z M 62.2 144.45 l 0 9.35 l 1.73 -0.02 l 1.72 -0.03 l 0 -9.3 l 0 -9.3 l -1.72 -0.03 l -1.73 -0.02 l 0 9.35 z" />
</svg>