<svg width="32" height="32" viewBox="0 0 32 32" fill="none" xmlns="http://www.w3.org/2000/svg">
    <path fill="rgb(33.333333%,32.156863%,99.215686%)"
        d="M10.668 10.668 8 10.668 8 8 10.668 8ZM10.668 10.668M10.668 13.332 8 13.332 8 10.668 10.668 10.668ZM10.668 13.332M10.668 16 8 16 8 13.332 10.668 13.332ZM10.668 16M10.668 18.668 8 18.668 8 16 10.668 16ZM10.668 18.668M10.668 21.332 8 21.332 8 18.668 10.668 18.668ZM10.668 21.332M10.668 21.332 8 21.332 8 24 10.668 24ZM10.668 21.332M10.668 5.332 8 5.332 8 2.668 10.668 2.668ZM10.668 5.332M13.332 13.332 10.668 13.332 10.668 10.668 13.332 10.668ZM13.332 13.332M13.332 2.668 10.668 2.668 10.668 0 13.332 0ZM13.332 2.668M13.332 32 10.668 32 10.668 29.332 13.332 29.332ZM13.332 32M16 16 13.332 16 13.332 13.332 16 13.332ZM16 16M16 2.668 13.332 2.668 13.332 0 16 0ZM16 2.668M16 32 13.332 32 13.332 29.332 16 29.332ZM16 32M18.668 16 16 16 16 13.332 18.668 13.332ZM18.668 16M18.668 2.668 16 2.668 16 0 18.668 0ZM18.668 2.668M18.668 32 16 32 16 29.332 18.668 29.332ZM18.668 32M2.668 13.332 0 13.332 0 10.668 2.668 10.668ZM2.668 13.332M2.668 16 0 16 0 13.332 2.668 13.332ZM2.668 16M2.668 18.668 0 18.668 0 16 2.668 16ZM2.668 18.668M2.668 21.332 0 21.332 0 18.668 2.668 18.668ZM2.668 21.332M2.668 24 2.668 21.332 5.332 21.332 5.332 24ZM2.668 24M21.332 13.332 18.668 13.332 18.668 10.668 21.332 10.668ZM21.332 13.332M21.332 2.668 18.668 2.668 18.668 0 21.332 0ZM21.332 2.668M21.332 32 18.668 32 18.668 29.332 21.332 29.332ZM21.332 32M21.332 5.332 24 5.332 24 2.668 21.332 2.668ZM21.332 5.332M24 10.668 21.332 10.668 21.332 8 24 8ZM24 10.668M24 13.332 21.332 13.332 21.332 10.668 24 10.668ZM24 13.332M24 16 21.332 16 21.332 13.332 24 13.332ZM24 16M24 18.668 21.332 18.668 21.332 16 24 16ZM24 18.668M24 21.332 21.332 21.332 21.332 18.668 24 18.668ZM24 21.332M24 21.332 21.332 21.332 21.332 24 24 24ZM24 21.332M24 29.332 21.332 29.332 21.332 26.668 24 26.668ZM24 29.332M24 8 26.668 8 26.668 5.332 24 5.332ZM24 8M26.668 10.668 29.332 10.668 29.332 8 26.668 8ZM26.668 10.668M26.668 26.668 24 26.668 24 24 26.668 24ZM26.668 26.668M29.332 24 26.668 24 26.668 21.332 29.332 21.332ZM29.332 24M32 13.332 29.332 13.332 29.332 10.668 32 10.668ZM32 13.332M32 16 29.332 16 29.332 13.332 32 13.332ZM32 16M32 18.668 29.332 18.668 29.332 16 32 16ZM32 18.668M32 21.332 29.332 21.332 29.332 18.668 32 18.668ZM32 21.332M5.332 10.668 2.668 10.668 2.668 8 5.332 8ZM5.332 10.668M5.332 26.668 5.332 24 8 24 8 26.668ZM5.332 26.668M8 29.332 8 26.668 10.668 26.668 10.668 29.332ZM8 29.332M8 8 5.332 8 5.332 5.332 8 5.332ZM8 8" />
    <path fill="rgb(58.823529%,58.431373%,97.254902%)"
        d="M10.668 26.668 8 26.668 8 24 10.668 24ZM10.668 26.668M13.332 29.332 10.668 29.332 10.668 26.668 13.332 26.668ZM13.332 29.332M13.332 5.332 10.668 5.332 10.668 2.668 13.332 2.668ZM13.332 5.332M16 29.332 13.332 29.332 13.332 26.668 16 26.668ZM16 29.332M16 5.332 13.332 5.332 13.332 2.668 16 2.668ZM16 5.332M18.668 29.332 16 29.332 16 26.668 18.668 26.668ZM18.668 29.332M18.668 5.332 16 5.332 16 2.668 18.668 2.668ZM18.668 5.332M21.332 26.668 24 26.668 24 24 21.332 24ZM21.332 26.668M21.332 29.332 18.668 29.332 18.668 26.668 21.332 26.668ZM21.332 29.332M21.332 5.332 18.668 5.332 18.668 2.668 21.332 2.668ZM21.332 5.332M24 24 26.668 24 26.668 21.332 24 21.332ZM24 24M24 8 21.332 8 21.332 5.332 24 5.332ZM24 8M26.668 10.668 24 10.668 24 8 26.668 8ZM26.668 10.668M29.332 13.332 26.668 13.332 26.668 10.668 29.332 10.668ZM29.332 13.332M29.332 16 26.668 16 26.668 13.332 29.332 13.332ZM29.332 16M29.332 18.668 26.668 18.668 26.668 16 29.332 16ZM29.332 18.668M29.332 21.332 26.668 21.332 26.668 18.668 29.332 18.668ZM29.332 21.332M5.332 10.668 8 10.668 8 8 5.332 8ZM5.332 10.668M5.332 13.332 2.668 13.332 2.668 10.668 5.332 10.668ZM5.332 13.332M5.332 16 2.668 16 2.668 13.332 5.332 13.332ZM5.332 16M5.332 18.668 2.668 18.668 2.668 16 5.332 16ZM5.332 18.668M5.332 21.332 2.668 21.332 2.668 18.668 5.332 18.668ZM5.332 21.332M8 24 5.332 24 5.332 21.332 8 21.332ZM8 24M8 8 10.668 8 10.668 5.332 8 5.332ZM8 8" />
    <path fill="rgb(99.607843%,85.098039%,33.333333%)"
        d="M13.332 10.668 10.668 10.668 10.668 8 13.332 8ZM13.332 10.668M13.332 16 10.668 16 10.668 13.332 13.332 13.332ZM13.332 16M13.332 18.668 10.668 18.668 10.668 16 13.332 16ZM13.332 18.668M13.332 21.332 10.668 21.332 10.668 18.668 13.332 18.668ZM13.332 21.332M13.332 21.332 10.668 21.332 10.668 24 13.332 24ZM13.332 21.332M13.332 24 10.668 24 10.668 26.668 13.332 26.668ZM13.332 24M13.332 8 10.668 8 10.668 5.332 13.332 5.332ZM13.332 8M16 10.668 13.332 10.668 13.332 8 16 8ZM16 10.668M16 13.332 13.332 13.332 13.332 10.668 16 10.668ZM16 13.332M16 18.668 13.332 18.668 13.332 16 16 16ZM16 18.668M16 21.332 13.332 21.332 13.332 18.668 16 18.668ZM16 21.332M16 21.332 13.332 21.332 13.332 24 16 24ZM16 21.332M16 24 13.332 24 13.332 26.668 16 26.668ZM16 24M16 8 13.332 8 13.332 5.332 16 5.332ZM16 8M18.668 10.668 16 10.668 16 8 18.668 8ZM18.668 10.668M18.668 13.332 16 13.332 16 10.668 18.668 10.668ZM18.668 13.332M18.668 18.668 16 18.668 16 16 18.668 16ZM18.668 18.668M18.668 21.332 16 21.332 16 18.668 18.668 18.668ZM18.668 21.332M18.668 21.332 16 21.332 16 24 18.668 24ZM18.668 21.332M18.668 24 16 24 16 26.668 18.668 26.668ZM18.668 24M18.668 8 16 8 16 5.332 18.668 5.332ZM18.668 8M21.332 10.668 18.668 10.668 18.668 8 21.332 8ZM21.332 10.668M21.332 16 18.668 16 18.668 13.332 21.332 13.332ZM21.332 16M21.332 18.668 18.668 18.668 18.668 16 21.332 16ZM21.332 18.668M21.332 21.332 18.668 21.332 18.668 18.668 21.332 18.668ZM21.332 21.332M21.332 21.332 18.668 21.332 18.668 24 21.332 24ZM21.332 21.332M21.332 24 18.668 24 18.668 26.668 21.332 26.668ZM21.332 24M21.332 8 18.668 8 18.668 5.332 21.332 5.332ZM21.332 8M26.668 13.332 24 13.332 24 10.668 26.668 10.668ZM26.668 13.332M26.668 16 24 16 24 13.332 26.668 13.332ZM26.668 16M26.668 18.668 24 18.668 24 16 26.668 16ZM26.668 18.668M26.668 21.332 24 21.332 24 18.668 26.668 18.668ZM26.668 21.332M8 13.332 5.332 13.332 5.332 10.668 8 10.668ZM8 13.332M8 16 5.332 16 5.332 13.332 8 13.332ZM8 16M8 18.668 5.332 18.668 5.332 16 8 16ZM8 18.668M8 21.332 5.332 21.332 5.332 18.668 8 18.668ZM8 21.332" />
</svg>
