<svg width="62" height="32" viewBox="0 0 62 32" fill="none" xmlns="http://www.w3.org/2000/svg">
    <path fill="rgb(33.333333%,32.156863%,99.215686%)"
        d="M 40.668 10.668 L 38 10.668 L 38 8 L 40.668 8 Z M 40.668 10.668 M 40.668 13.332 L 38 13.332 L 38 10.668 L 40.668 10.668 Z M 40.668 13.332 M 40.668 16 L 38 16 L 38 13.332 L 40.668 13.332 Z M 40.668 16 M 40.668 18.668 L 38 18.668 L 38 16 L 40.668 16 Z M 40.668 18.668 M 40.668 21.332 L 38 21.332 L 38 18.668 L 40.668 18.668 Z M 40.668 21.332 M 40.668 21.332 L 38 21.332 L 38 24 L 40.668 24 Z M 40.668 21.332 M 40.668 5.332 L 38 5.332 L 38 2.668 L 40.668 2.668 Z M 40.668 5.332 M 43.332 13.332 L 40.668 13.332 L 40.668 10.668 L 43.332 10.668 Z M 43.332 13.332 M 43.332 2.668 L 40.668 2.668 L 40.668 0 L 43.332 0 Z M 43.332 2.668 M 43.332 32 L 40.668 32 L 40.668 29.332 L 43.332 29.332 Z M 43.332 32 M 46 16 L 43.332 16 L 43.332 13.332 L 46 13.332 Z M 46 16 M 46 2.668 L 43.332 2.668 L 43.332 0 L 46 0 Z M 46 2.668 M 46 32 L 43.332 32 L 43.332 29.332 L 46 29.332 Z M 46 32 M 48.668 16 L 46 16 L 46 13.332 L 48.668 13.332 Z M 48.668 16 M 48.668 2.668 L 46 2.668 L 46 0 L 48.668 0 Z M 48.668 2.668 M 48.668 32 L 46 32 L 46 29.332 L 48.668 29.332 Z M 48.668 32 M 32.668 13.332 L 30 13.332 L 30 10.668 L 32.668 10.668 Z M 32.668 13.332 M 32.668 16 L 30 16 L 30 13.332 L 32.668 13.332 Z M 32.668 16 M 32.668 18.668 L 30 18.668 L 30 16 L 32.668 16 Z M 32.668 18.668 M 32.668 21.332 L 30 21.332 L 30 18.668 L 32.668 18.668 Z M 32.668 21.332 M 32.668 24 L 32.668 21.332 L 35.332 21.332 L 35.332 24 Z M 32.668 24 M 51.332 13.332 L 48.668 13.332 L 48.668 10.668 L 51.332 10.668 Z M 51.332 13.332 M 51.332 2.668 L 48.668 2.668 L 48.668 0 L 51.332 0 Z M 51.332 2.668 M 51.332 32 L 48.668 32 L 48.668 29.332 L 51.332 29.332 Z M 51.332 32 M 51.332 5.332 L 54 5.332 L 54 2.668 L 51.332 2.668 Z M 51.332 5.332 M 54 10.668 L 51.332 10.668 L 51.332 8 L 54 8 Z M 54 10.668 M 54 13.332 L 51.332 13.332 L 51.332 10.668 L 54 10.668 Z M 54 13.332 M 54 16 L 51.332 16 L 51.332 13.332 L 54 13.332 Z M 54 16 M 54 18.668 L 51.332 18.668 L 51.332 16 L 54 16 Z M 54 18.668 M 54 21.332 L 51.332 21.332 L 51.332 18.668 L 54 18.668 Z M 54 21.332 M 54 21.332 L 51.332 21.332 L 51.332 24 L 54 24 Z M 54 21.332 M 54 29.332 L 51.332 29.332 L 51.332 26.668 L 54 26.668 Z M 54 29.332 M 54 8 L 56.668 8 L 56.668 5.332 L 54 5.332 Z M 54 8 M 56.668 10.668 L 59.332 10.668 L 59.332 8 L 56.668 8 Z M 56.668 10.668 M 56.668 26.668 L 54 26.668 L 54 24 L 56.668 24 Z M 56.668 26.668 M 59.332 24 L 56.668 24 L 56.668 21.332 L 59.332 21.332 Z M 59.332 24 M 62 13.332 L 59.332 13.332 L 59.332 10.668 L 62 10.668 Z M 62 13.332 M 62 16 L 59.332 16 L 59.332 13.332 L 62 13.332 Z M 62 16 M 62 18.668 L 59.332 18.668 L 59.332 16 L 62 16 Z M 62 18.668 M 62 21.332 L 59.332 21.332 L 59.332 18.668 L 62 18.668 Z M 62 21.332 M 35.332 10.668 L 32.668 10.668 L 32.668 8 L 35.332 8 Z M 35.332 10.668 M 35.332 26.668 L 35.332 24 L 38 24 L 38 26.668 Z M 35.332 26.668 M 38 29.332 L 38 26.668 L 40.668 26.668 L 40.668 29.332 Z M 38 29.332 M 38 8 L 35.332 8 L 35.332 5.332 L 38 5.332 Z M 38 8" />
    <path fill="rgb(58.823529%,58.431373%,97.254902%)"
        d="M 40.668 26.668 L 38 26.668 L 38 24 L 40.668 24 Z M 40.668 26.668 M 43.332 29.332 L 40.668 29.332 L 40.668 26.668 L 43.332 26.668 Z M 43.332 29.332 M 43.332 5.332 L 40.668 5.332 L 40.668 2.668 L 43.332 2.668 Z M 43.332 5.332 M 46 29.332 L 43.332 29.332 L 43.332 26.668 L 46 26.668 Z M 46 29.332 M 46 5.332 L 43.332 5.332 L 43.332 2.668 L 46 2.668 Z M 46 5.332 M 48.668 29.332 L 46 29.332 L 46 26.668 L 48.668 26.668 Z M 48.668 29.332 M 48.668 5.332 L 46 5.332 L 46 2.668 L 48.668 2.668 Z M 48.668 5.332 M 51.332 26.668 L 54 26.668 L 54 24 L 51.332 24 Z M 51.332 26.668 M 51.332 29.332 L 48.668 29.332 L 48.668 26.668 L 51.332 26.668 Z M 51.332 29.332 M 51.332 5.332 L 48.668 5.332 L 48.668 2.668 L 51.332 2.668 Z M 51.332 5.332 M 54 24 L 56.668 24 L 56.668 21.332 L 54 21.332 Z M 54 24 M 54 8 L 51.332 8 L 51.332 5.332 L 54 5.332 Z M 54 8 M 56.668 10.668 L 54 10.668 L 54 8 L 56.668 8 Z M 56.668 10.668 M 59.332 13.332 L 56.668 13.332 L 56.668 10.668 L 59.332 10.668 Z M 59.332 13.332 M 59.332 16 L 56.668 16 L 56.668 13.332 L 59.332 13.332 Z M 59.332 16 M 59.332 18.668 L 56.668 18.668 L 56.668 16 L 59.332 16 Z M 59.332 18.668 M 59.332 21.332 L 56.668 21.332 L 56.668 18.668 L 59.332 18.668 Z M 59.332 21.332 M 35.332 10.668 L 38 10.668 L 38 8 L 35.332 8 Z M 35.332 10.668 M 35.332 13.332 L 32.668 13.332 L 32.668 10.668 L 35.332 10.668 Z M 35.332 13.332 M 35.332 16 L 32.668 16 L 32.668 13.332 L 35.332 13.332 Z M 35.332 16 M 35.332 18.668 L 32.668 18.668 L 32.668 16 L 35.332 16 Z M 35.332 18.668 M 35.332 21.332 L 32.668 21.332 L 32.668 18.668 L 35.332 18.668 Z M 35.332 21.332 M 38 24 L 35.332 24 L 35.332 21.332 L 38 21.332 Z M 38 24 M 38 8 L 40.668 8 L 40.668 5.332 L 38 5.332 Z M 38 8" />
    <path fill="rgb(99.607843%,85.098039%,33.333333%)"
        d="M 43.332 10.668 L 40.668 10.668 L 40.668 8 L 43.332 8 Z M 43.332 10.668 M 43.332 16 L 40.668 16 L 40.668 13.332 L 43.332 13.332 Z M 43.332 16 M 43.332 18.668 L 40.668 18.668 L 40.668 16 L 43.332 16 Z M 43.332 18.668 M 43.332 21.332 L 40.668 21.332 L 40.668 18.668 L 43.332 18.668 Z M 43.332 21.332 M 43.332 21.332 L 40.668 21.332 L 40.668 24 L 43.332 24 Z M 43.332 21.332 M 43.332 24 L 40.668 24 L 40.668 26.668 L 43.332 26.668 Z M 43.332 24 M 43.332 8 L 40.668 8 L 40.668 5.332 L 43.332 5.332 Z M 43.332 8 M 46 10.668 L 43.332 10.668 L 43.332 8 L 46 8 Z M 46 10.668 M 46 13.332 L 43.332 13.332 L 43.332 10.668 L 46 10.668 Z M 46 13.332 M 46 18.668 L 43.332 18.668 L 43.332 16 L 46 16 Z M 46 18.668 M 46 21.332 L 43.332 21.332 L 43.332 18.668 L 46 18.668 Z M 46 21.332 M 46 21.332 L 43.332 21.332 L 43.332 24 L 46 24 Z M 46 21.332 M 46 24 L 43.332 24 L 43.332 26.668 L 46 26.668 Z M 46 24 M 46 8 L 43.332 8 L 43.332 5.332 L 46 5.332 Z M 46 8 M 48.668 10.668 L 46 10.668 L 46 8 L 48.668 8 Z M 48.668 10.668 M 48.668 13.332 L 46 13.332 L 46 10.668 L 48.668 10.668 Z M 48.668 13.332 M 48.668 18.668 L 46 18.668 L 46 16 L 48.668 16 Z M 48.668 18.668 M 48.668 21.332 L 46 21.332 L 46 18.668 L 48.668 18.668 Z M 48.668 21.332 M 48.668 21.332 L 46 21.332 L 46 24 L 48.668 24 Z M 48.668 21.332 M 48.668 24 L 46 24 L 46 26.668 L 48.668 26.668 Z M 48.668 24 M 48.668 8 L 46 8 L 46 5.332 L 48.668 5.332 Z M 48.668 8 M 51.332 10.668 L 48.668 10.668 L 48.668 8 L 51.332 8 Z M 51.332 10.668 M 51.332 16 L 48.668 16 L 48.668 13.332 L 51.332 13.332 Z M 51.332 16 M 51.332 18.668 L 48.668 18.668 L 48.668 16 L 51.332 16 Z M 51.332 18.668 M 51.332 21.332 L 48.668 21.332 L 48.668 18.668 L 51.332 18.668 Z M 51.332 21.332 M 51.332 21.332 L 48.668 21.332 L 48.668 24 L 51.332 24 Z M 51.332 21.332 M 51.332 24 L 48.668 24 L 48.668 26.668 L 51.332 26.668 Z M 51.332 24 M 51.332 8 L 48.668 8 L 48.668 5.332 L 51.332 5.332 Z M 51.332 8 M 56.668 13.332 L 54 13.332 L 54 10.668 L 56.668 10.668 Z M 56.668 13.332 M 56.668 16 L 54 16 L 54 13.332 L 56.668 13.332 Z M 56.668 16 M 56.668 18.668 L 54 18.668 L 54 16 L 56.668 16 Z M 56.668 18.668 M 56.668 21.332 L 54 21.332 L 54 18.668 L 56.668 18.668 Z M 56.668 21.332 M 38 13.332 L 35.332 13.332 L 35.332 10.668 L 38 10.668 Z M 38 13.332 M 38 16 L 35.332 16 L 35.332 13.332 L 38 13.332 Z M 38 16 M 38 18.668 L 35.332 18.668 L 35.332 16 L 38 16 Z M 38 18.668 M 38 21.332 L 35.332 21.332 L 35.332 18.668 L 38 18.668 Z M 38 21.332" />
    <circle cx="16" cy="16" r="16" fill="#74736f" />
    <path fill="#FEFEFD"
        d="M 15.12 28.122 c -0.098 -0.046 -0.176 -0.126 -0.224 -0.232 c -0.032 -0.072 -0.036 -0.176 -0.046 -1.158 l -0.01 -1.078 l -0.316 -0.066 c -3.384 -0.704 -5.818 -3.352 -6.552 -7.128 c -0.072 -0.37 -0.128 -0.764 -0.176 -1.24 c -0.05 -0.5 -0.05 -1.88 0 -2.38 c 0.15 -1.474 0.48 -2.666 1.054 -3.81 c 0.79 -1.574 1.936 -2.762 3.408 -3.532 c 0.746 -0.39 1.572 -0.656 2.518 -0.808 l 0.074 -0.012 l 0 -1.086 c 0 -1.178 0.002 -1.202 0.11 -1.346 c 0.066 -0.086 0.23 -0.166 0.34 -0.166 c 0.102 0 0.27 0.078 0.328 0.152 c 0.116 0.146 0.112 0.108 0.118 1.284 l 0.006 1.084 l 0.374 0 c 0.206 0 0.422 0.006 0.48 0.012 l 0.104 0.014 l 0 -1.094 c 0 -1.206 -0.004 -1.174 0.126 -1.31 c 0.224 -0.234 0.574 -0.166 0.712 0.138 c 0.04 0.088 0.042 0.126 0.042 1.226 c 0 0.624 0.004 1.134 0.008 1.134 c 0.042 0 0.496 0.096 0.722 0.152 c 1.152 0.288 2.2 0.812 3.12 1.556 c 0.306 0.248 0.88 0.83 1.138 1.152 c 0.938 1.176 1.55 2.568 1.88 4.272 c 0.222 1.15 0.284 2.622 0.16 3.838 c -0.434 4.278 -2.95 7.282 -6.648 7.94 c -0.16 0.028 -0.31 0.056 -0.334 0.062 l -0.046 0.008 l 0 1.038 c 0 1.112 0 1.124 -0.104 1.262 c -0.024 0.034 -0.092 0.084 -0.15 0.114 c -0.212 0.102 -0.46 0.02 -0.57 -0.192 l -0.056 -0.106 l 0 -1.018 l 0 -1.018 l -0.284 0 c -0.158 0 -0.374 -0.006 -0.48 -0.014 l -0.194 -0.012 l -0.006 1.028 c -0.006 0.94 -0.01 1.034 -0.042 1.108 c -0.076 0.168 -0.226 0.27 -0.404 0.27 c -0.056 0 -0.136 -0.018 -0.18 -0.038 z m 1.528 -4.374 l 0.062 -0.012 l 0 -7.548 l 0 -7.548 l -0.044 -0.01 c -0.026 -0.006 -0.24 -0.008 -0.476 -0.006 l -0.43 0.006 l -0.006 7.554 l -0.004 7.554 l 0.044 0.008 c 0.074 0.014 0.786 0.016 0.854 0.002 z m 1.322 -0.262 c 0.514 -0.168 1.084 -0.482 1.536 -0.844 c 1.164 -0.93 2.024 -2.484 2.392 -4.322 c 0.298 -1.482 0.26 -3.192 -0.102 -4.68 c -0.548 -2.254 -1.808 -3.914 -3.516 -4.63 c -0.174 -0.074 -0.638 -0.23 -0.682 -0.23 c -0.004 0 -0.008 3.334 -0.008 7.41 l 0 7.41 l 0.056 -0.012 c 0.03 -0.006 0.176 -0.052 0.324 -0.102 z m -3.12 -7.306 c 0 -4.07 -0.002 -7.4 -0.006 -7.4 c -0.004 0 -0.082 0.022 -0.176 0.05 c -0.788 0.236 -1.534 0.686 -2.148 1.3 c -0.656 0.654 -1.142 1.414 -1.518 2.368 c -0.796 2.018 -0.864 4.632 -0.178 6.842 c 0.588 1.896 1.722 3.306 3.19 3.966 c 0.244 0.108 0.718 0.272 0.792 0.274 l 0.044 0 l 0 -7.4 z" />
</svg>