<svg width="62" height="32" viewBox="0 0 62 32" fill="none" xmlns="http://www.w3.org/2000/svg">
    <circle cx="46" cy="16" r="16" fill="#2775ca" />
    <path
        d="M 50.4 18.5333 c 0 -2.3333 -1.4 -3.1333 -4.2 -3.4666 c -2 -0.2667 -2.4 -0.8 -2.4 -1.7334 s 0.6667 -1.5333 2 -1.5333 c 1.2 0 1.8667 0.4 2.2 1.4 c 0.0667 0.2 0.2667 0.3333 0.4667 0.3333 h 1.0666 c 0.2667 0 0.4667 -0.2 0.4667 -0.4666 v -0.0667 c -0.2667 -1.4667 -1.4667 -2.6 -3 -2.7333 v -1.6 c 0 -0.2667 -0.2 -0.4667 -0.5333 -0.5334 h -1 c -0.2667 0 -0.4667 0.2 -0.5334 0.5334 v 1.5333 c -2 0.2667 -3.2666 1.6 -3.2666 3.2667 c 0 2.2 1.3333 3.0666 4.1333 3.4 c 1.8667 0.3333 2.4667 0.7333 2.4667 1.8 s -0.9334 1.8 -2.2 1.8 c -1.7334 0 -2.3334 -0.7334 -2.5334 -1.7334 c -0.0666 -0.2666 -0.2666 -0.4 -0.4666 -0.4 h -1.1334 c -0.2666 0 -0.4666 0.2 -0.4666 0.4667 v 0.0667 c 0.2666 1.6666 1.3333 2.8666 3.5333 3.2 v 1.6 c 0 0.2666 0.2 0.4666 0.5333 0.5333 h 1 c 0.2667 0 0.4667 -0.2 0.5334 -0.5333 v -1.6 c 2 -0.3334 3.3333 -1.7334 3.3333 -3.5334 z M 42.6 25.5333 c -5.2 -1.8666 -7.8667 -7.6666 -5.9333 -12.8 c 1 -2.8 3.2 -4.9333 5.9333 -5.9333 c 0.2667 -0.1333 0.4 -0.3333 0.4 -0.6667 V 5.2 c 0 -0.2667 -0.1333 -0.4667 -0.4 -0.5333 c -0.0667 0 -0.2 0 -0.2667 0.0666 c -6.3333 2 -9.8 8.7334 -7.8 15.0667 c 1.2 3.7333 4.0667 6.6 7.8 7.8 c 0.2667 0.1333 0.5334 0 0.6 -0.2667 c 0.0667 -0.0666 0.0667 -0.1333 0.0667 -0.2666 v -0.9334 c 0 -0.2 -0.2 -0.4666 -0.4 -0.6 z M 49.6667 4.7333 c -0.2667 -0.1333 -0.5334 0 -0.6 0.2667 c -0.0667 0.0667 -0.0667 0.1333 -0.0667 0.2667 v 0.9333 c 0 0.2667 0.2 0.5333 0.4 0.6667 c 5.2 1.8666 7.8667 7.6666 5.9333 12.8 c -1 2.8 -3.2 4.9333 -5.9333 5.9333 c -0.2667 0.1333 -0.4 0.3333 -0.4 0.6667 V 27.2 c 0 0.2667 0.1333 0.4667 0.4 0.5333 c 0.0667 0 0.2 0 0.2667 -0.0666 c 6.3333 -2 9.8 -8.7334 7.8 -15.0667 c -1.2 -3.8 -4.1334 -6.6667 -7.8 -7.8667 z"
        fill="#FEFEFD" />
    <circle cx="16" cy="16" r="16" fill="#74736f" />
    <path fill="#FEFEFD"
        d="M 15.12 28.122 c -0.098 -0.046 -0.176 -0.126 -0.224 -0.232 c -0.032 -0.072 -0.036 -0.176 -0.046 -1.158 l -0.01 -1.078 l -0.316 -0.066 c -3.384 -0.704 -5.818 -3.352 -6.552 -7.128 c -0.072 -0.37 -0.128 -0.764 -0.176 -1.24 c -0.05 -0.5 -0.05 -1.88 0 -2.38 c 0.15 -1.474 0.48 -2.666 1.054 -3.81 c 0.79 -1.574 1.936 -2.762 3.408 -3.532 c 0.746 -0.39 1.572 -0.656 2.518 -0.808 l 0.074 -0.012 l 0 -1.086 c 0 -1.178 0.002 -1.202 0.11 -1.346 c 0.066 -0.086 0.23 -0.166 0.34 -0.166 c 0.102 0 0.27 0.078 0.328 0.152 c 0.116 0.146 0.112 0.108 0.118 1.284 l 0.006 1.084 l 0.374 0 c 0.206 0 0.422 0.006 0.48 0.012 l 0.104 0.014 l 0 -1.094 c 0 -1.206 -0.004 -1.174 0.126 -1.31 c 0.224 -0.234 0.574 -0.166 0.712 0.138 c 0.04 0.088 0.042 0.126 0.042 1.226 c 0 0.624 0.004 1.134 0.008 1.134 c 0.042 0 0.496 0.096 0.722 0.152 c 1.152 0.288 2.2 0.812 3.12 1.556 c 0.306 0.248 0.88 0.83 1.138 1.152 c 0.938 1.176 1.55 2.568 1.88 4.272 c 0.222 1.15 0.284 2.622 0.16 3.838 c -0.434 4.278 -2.95 7.282 -6.648 7.94 c -0.16 0.028 -0.31 0.056 -0.334 0.062 l -0.046 0.008 l 0 1.038 c 0 1.112 0 1.124 -0.104 1.262 c -0.024 0.034 -0.092 0.084 -0.15 0.114 c -0.212 0.102 -0.46 0.02 -0.57 -0.192 l -0.056 -0.106 l 0 -1.018 l 0 -1.018 l -0.284 0 c -0.158 0 -0.374 -0.006 -0.48 -0.014 l -0.194 -0.012 l -0.006 1.028 c -0.006 0.94 -0.01 1.034 -0.042 1.108 c -0.076 0.168 -0.226 0.27 -0.404 0.27 c -0.056 0 -0.136 -0.018 -0.18 -0.038 z m 1.528 -4.374 l 0.062 -0.012 l 0 -7.548 l 0 -7.548 l -0.044 -0.01 c -0.026 -0.006 -0.24 -0.008 -0.476 -0.006 l -0.43 0.006 l -0.006 7.554 l -0.004 7.554 l 0.044 0.008 c 0.074 0.014 0.786 0.016 0.854 0.002 z m 1.322 -0.262 c 0.514 -0.168 1.084 -0.482 1.536 -0.844 c 1.164 -0.93 2.024 -2.484 2.392 -4.322 c 0.298 -1.482 0.26 -3.192 -0.102 -4.68 c -0.548 -2.254 -1.808 -3.914 -3.516 -4.63 c -0.174 -0.074 -0.638 -0.23 -0.682 -0.23 c -0.004 0 -0.008 3.334 -0.008 7.41 l 0 7.41 l 0.056 -0.012 c 0.03 -0.006 0.176 -0.052 0.324 -0.102 z m -3.12 -7.306 c 0 -4.07 -0.002 -7.4 -0.006 -7.4 c -0.004 0 -0.082 0.022 -0.176 0.05 c -0.788 0.236 -1.534 0.686 -2.148 1.3 c -0.656 0.654 -1.142 1.414 -1.518 2.368 c -0.796 2.018 -0.864 4.632 -0.178 6.842 c 0.588 1.896 1.722 3.306 3.19 3.966 c 0.244 0.108 0.718 0.272 0.792 0.274 l 0.044 0 l 0 -7.4 z" />
</svg>