<svg width="100" height="100" viewBox="0 0 100 100" fill="none" xmlns="http://www.w3.org/2000/svg">
    <path fill-rule="evenodd" clip-rule="evenodd"
        d="M49.9453 93.7637C74.0246 93.7637 93.5448 74.2435 93.5448 50.1641C93.5448 45.1066 92.6837 40.2501 91.1 35.7334V21.5178C96.7113 29.5997 100 39.4158 100 50C100 77.6142 77.6142 100 50 100C22.3858 100 0 77.6142 0 50C0 39.353 3.3278 29.4833 9 21.3743V35.1494C7.28293 39.8305 6.3457 44.8879 6.3457 50.1641C6.3457 74.2435 25.8659 93.7637 49.9453 93.7637Z"
        fill="url(#paint0_linear)" />
    <path
        d="M11.1001 50C11.1001 28.5161 28.5162 11.1 50.0001 11.1C71.484 11.1 88.9001 28.5161 88.9001 50C88.9001 71.4839 71.484 88.9 50.0001 88.9C28.5162 88.9 11.1001 71.4839 11.1001 50Z"
        fill="#74736f" />
    <path fill="#FEFEFD"
        d="M 47.2 80.305 c -0.245 -0.115 -0.44 -0.315 -0.56 -0.58 c -0.08 -0.18 -0.09 -0.44 -0.115 -2.895 l -0.025 -2.695 l -0.79 -0.165 c -8.46 -1.76 -14.545 -8.38 -16.38 -17.82 c -0.18 -0.925 -0.32 -1.91 -0.44 -3.1 c -0.125 -1.25 -0.125 -4.7 0 -5.95 c 0.375 -3.685 1.2 -6.665 2.635 -9.525 c 1.975 -3.935 4.84 -6.905 8.52 -8.83 c 1.865 -0.975 3.93 -1.64 6.295 -2.02 l 0.185 -0.03 l 0 -2.715 c 0 -2.945 0.005 -3.005 0.275 -3.365 c 0.165 -0.215 0.575 -0.415 0.85 -0.415 c 0.255 0 0.675 0.195 0.82 0.38 c 0.29 0.365 0.28 0.27 0.295 3.21 l 0.015 2.71 l 0.935 0 c 0.515 0 1.055 0.015 1.2 0.03 l 0.26 0.035 l 0 -2.735 c 0 -3.015 -0.01 -2.935 0.315 -3.275 c 0.56 -0.585 1.435 -0.415 1.78 0.345 c 0.1 0.22 0.105 0.315 0.105 3.065 c 0 1.56 0.01 2.835 0.02 2.835 c 0.105 0 1.24 0.24 1.805 0.38 c 2.88 0.72 5.5 2.03 7.8 3.89 c 0.765 0.62 2.2 2.075 2.845 2.88 c 2.345 2.94 3.875 6.42 4.7 10.68 c 0.555 2.875 0.71 6.555 0.4 9.595 c -1.085 10.695 -7.375 18.205 -16.62 19.85 c -0.4 0.07 -0.775 0.14 -0.835 0.155 l -0.115 0.02 l 0 2.595 c 0 2.78 0 2.81 -0.26 3.155 c -0.06 0.085 -0.23 0.21 -0.375 0.285 c -0.53 0.255 -1.15 0.05 -1.425 -0.48 l -0.14 -0.265 l 0 -2.545 l 0 -2.545 l -0.71 0 c -0.395 0 -0.935 -0.015 -1.2 -0.035 l -0.485 -0.03 l -0.015 2.57 c -0.015 2.35 -0.025 2.585 -0.105 2.77 c -0.19 0.42 -0.565 0.675 -1.01 0.675 c -0.14 0 -0.34 -0.045 -0.45 -0.095 z m 3.82 -10.935 l 0.155 -0.03 l 0 -18.87 l 0 -18.87 l -0.11 -0.025 c -0.065 -0.015 -0.6 -0.02 -1.19 -0.015 l -1.075 0.015 l -0.015 18.885 l -0.01 18.885 l 0.11 0.02 c 0.185 0.035 1.965 0.04 2.135 0.005 z m 3.305 -0.655 c 1.285 -0.42 2.71 -1.205 3.84 -2.11 c 2.91 -2.325 5.06 -6.21 5.98 -10.805 c 0.745 -3.705 0.65 -7.98 -0.255 -11.7 c -1.37 -5.635 -4.52 -9.785 -8.79 -11.575 c -0.435 -0.185 -1.595 -0.575 -1.705 -0.575 c -0.01 0 -0.02 8.335 -0.02 18.525 l 0 18.525 l 0.14 -0.03 c 0.075 -0.015 0.44 -0.13 0.81 -0.255 z m -7.8 -18.265 c 0 -10.175 -0.005 -18.5 -0.015 -18.5 c -0.01 0 -0.205 0.055 -0.44 0.125 c -1.97 0.59 -3.835 1.715 -5.37 3.25 c -1.64 1.635 -2.855 3.535 -3.795 5.92 c -1.99 5.045 -2.16 11.58 -0.445 17.105 c 1.47 4.74 4.305 8.265 7.975 9.915 c 0.61 0.27 1.795 0.68 1.98 0.685 l 0.11 0 l 0 -18.5 z" />
    <defs>
        <linearGradient id="paint0_linear" x1="-83.5339" y1="50" x2="189.059" y2="50" gradientUnits="userSpaceOnUse">
            <stop stop-color="#708B96" />
            <stop offset="1" stop-color="#F7FBE7" />
        </linearGradient>
    </defs>
</svg>