<svg xmlns="http://www.w3.org/2000/svg" viewBox="0 0 32 32">
    <circle cx="16" cy="16" r="16" fill="#2775ca" />
    <path
        d="M 20.4 18.5333 c 0 -2.3333 -1.4 -3.1333 -4.2 -3.4666 c -2 -0.2667 -2.4 -0.8 -2.4 -1.7334 s 0.6667 -1.5333 2 -1.5333 c 1.2 0 1.8667 0.4 2.2 1.4 c 0.0667 0.2 0.2667 0.3333 0.4667 0.3333 h 1.0666 c 0.2667 0 0.4667 -0.2 0.4667 -0.4666 v -0.0667 c -0.2667 -1.4667 -1.4667 -2.6 -3 -2.7333 v -1.6 c 0 -0.2667 -0.2 -0.4667 -0.5333 -0.5334 h -1 c -0.2667 0 -0.4667 0.2 -0.5334 0.5334 v 1.5333 c -2 0.2667 -3.2666 1.6 -3.2666 3.2667 c 0 2.2 1.3333 3.0666 4.1333 3.4 c 1.8667 0.3333 2.4667 0.7333 2.4667 1.8 s -0.9334 1.8 -2.2 1.8 c -1.7334 0 -2.3334 -0.7334 -2.5334 -1.7334 c -0.0666 -0.2666 -0.2666 -0.4 -0.4666 -0.4 h -1.1334 c -0.2666 0 -0.4666 0.2 -0.4666 0.4667 v 0.0667 c 0.2666 1.6666 1.3333 2.8666 3.5333 3.2 v 1.6 c 0 0.2666 0.2 0.4666 0.5333 0.5333 h 1 c 0.2667 0 0.4667 -0.2 0.5334 -0.5333 v -1.6 c 2 -0.3334 3.3333 -1.7334 3.3333 -3.5334 z M 12.6 25.5333 c -5.2 -1.8666 -7.8667 -7.6666 -5.9333 -12.8 c 1 -2.8 3.2 -4.9333 5.9333 -5.9333 c 0.2667 -0.1333 0.4 -0.3333 0.4 -0.6667 V 5.2 c 0 -0.2667 -0.1333 -0.4667 -0.4 -0.5333 c -0.0667 0 -0.2 0 -0.2667 0.0666 c -6.3333 2 -9.8 8.7334 -7.8 15.0667 c 1.2 3.7333 4.0667 6.6 7.8 7.8 c 0.2667 0.1333 0.5334 0 0.6 -0.2667 c 0.0667 -0.0666 0.0667 -0.1333 0.0667 -0.2666 v -0.9334 c 0 -0.2 -0.2 -0.4666 -0.4 -0.6 z M 19.6667 4.7333 c -0.2667 -0.1333 -0.5334 0 -0.6 0.2667 c -0.0667 0.0667 -0.0667 0.1333 -0.0667 0.2667 v 0.9333 c 0 0.2667 0.2 0.5333 0.4 0.6667 c 5.2 1.8666 7.8667 7.6666 5.9333 12.8 c -1 2.8 -3.2 4.9333 -5.9333 5.9333 c -0.2667 0.1333 -0.4 0.3333 -0.4 0.6667 V 27.2 c 0 0.2667 0.1333 0.4667 0.4 0.5333 c 0.0667 0 0.2 0 0.2667 -0.0666 c 6.3333 -2 9.8 -8.7334 7.8 -15.0667 c -1.2 -3.8 -4.1334 -6.6667 -7.8 -7.8667 z"
        fill="#fff" />
</svg>