<?xml version="1.0" standalone="no"?>
<!DOCTYPE svg PUBLIC "-//W3C//DTD SVG 20010904//EN"
 "http://www.w3.org/TR/2001/REC-SVG-20010904/DTD/svg10.dtd">
<svg version="1.0" xmlns="http://www.w3.org/2000/svg"
 width="847.000000pt" height="1212.000000pt" viewBox="0 0 847.000000 1212.000000"
 preserveAspectRatio="xMidYMid meet">

<g transform="translate(0.000000,1212.000000) scale(0.100000,-0.100000)"
fill="#DDDDDD" stroke="none">
<path d="M3685 12061 c-49 -23 -88 -63 -112 -116 -16 -36 -18 -88 -23 -579
l-5 -539 -158 -33 c-1692 -352 -2909 -1676 -3276 -3564 -36 -185 -64 -382 -88
-620 -25 -250 -25 -940 0 -1190 75 -737 240 -1333 527 -1905 395 -787 968
-1381 1704 -1766 373 -195 786 -328 1259 -404 l37 -6 0 -543 c0 -589 1 -601
55 -673 33 -43 115 -83 170 -83 51 0 135 39 164 76 58 73 56 54 59 642 l3 542
187 0 c103 0 211 3 240 6 l52 7 0 -547 c0 -603 -2 -587 63 -655 112 -117 287
-83 356 69 20 44 21 63 21 613 0 312 2 567 4 567 21 0 248 48 361 76 576 144
1100 406 1560 778 153 124 440 415 569 576 469 588 775 1284 940 2136 111 575
142 1311 80 1919 -217 2139 -1475 3641 -3324 3970 -80 14 -155 28 -167 31
l-23 4 0 519 c0 556 0 562 -52 631 -12 17 -46 42 -75 57 -106 51 -230 10 -285
-96 l-28 -53 0 -509 0 -509 -142 0 c-79 0 -187 -3 -240 -7 l-97 -6 -3 514 c-3
470 -5 517 -21 554 -38 84 -113 135 -202 135 -28 0 -68 -9 -90 -19z m764
-2187 l31 -6 0 -3774 0 -3774 -22 -5 c-13 -3 -120 -4 -238 -3 l-215 3 -3 3777
-2 3777 22 4 c37 7 393 8 427 1z m661 -131 c257 -84 542 -241 768 -422 582
-465 1012 -1242 1196 -2161 149 -741 130 -1596 -51 -2340 -274 -1127 -904
-1957 -1758 -2315 -87 -37 -319 -115 -341 -115 -2 0 -4 1667 -4 3705 l0 3705
28 -6 c15 -3 88 -26 162 -51z m-1560 -3653 c0 -2035 -1 -3700 -3 -3700 -2 0
-41 11 -88 25 -394 118 -767 343 -1074 650 -328 327 -571 707 -759 1184 -398
1009 -432 2316 -89 3421 294 948 861 1653 1595 1983 122 54 359 136 396 137
l22 0 0 -3700z"/>
</g>
</svg>
