<?xml version="1.0" standalone="no"?>
<!DOCTYPE svg PUBLIC "-//W3C//DTD SVG 20010904//EN"
 "http://www.w3.org/TR/2001/REC-SVG-20010904/DTD/svg10.dtd">
<svg version="1.0" xmlns="http://www.w3.org/2000/svg"
 width="1400.000000pt" height="1540.000000pt" viewBox="0 0 1400.000000 1540.000000"
 preserveAspectRatio="xMidYMid meet">

<g transform="translate(0.000000,1540.000000) scale(0.100000,-0.100000)"
fill="#DDDDDD" stroke="none">
<path d="M6455 15341 c-49 -23 -88 -63 -112 -116 -16 -36 -18 -88 -23 -579
l-5 -539 -158 -33 c-1692 -352 -2909 -1676 -3276 -3564 -36 -185 -64 -382 -88
-620 -25 -250 -25 -940 0 -1190 75 -737 240 -1333 527 -1905 395 -787 968
-1381 1704 -1766 373 -195 786 -328 1259 -404 l37 -6 0 -543 c0 -589 1 -601
55 -673 33 -43 115 -83 170 -83 51 0 135 39 164 76 58 73 56 54 59 642 l3 542
187 0 c103 0 211 3 240 6 l52 7 0 -547 c0 -603 -2 -587 63 -655 112 -117 287
-83 356 69 20 44 21 63 21 613 0 312 2 567 4 567 21 0 248 48 361 76 576 144
1100 406 1560 778 153 124 440 415 569 576 469 588 775 1284 940 2136 111 575
142 1311 80 1919 -217 2139 -1475 3641 -3324 3970 -80 14 -155 28 -167 31
l-23 4 0 519 c0 556 0 562 -52 631 -12 17 -46 42 -75 57 -106 51 -230 10 -285
-96 l-28 -53 0 -509 0 -509 -142 0 c-79 0 -187 -3 -240 -7 l-97 -6 -3 514 c-3
470 -5 517 -21 554 -38 84 -113 135 -202 135 -28 0 -68 -9 -90 -19z m764
-2187 l31 -6 0 -3774 0 -3774 -22 -5 c-13 -3 -120 -4 -238 -3 l-215 3 -3 3777
-2 3777 22 4 c37 7 393 8 427 1z m661 -131 c257 -84 542 -241 768 -422 582
-465 1012 -1242 1196 -2161 149 -741 130 -1596 -51 -2340 -274 -1127 -904
-1957 -1758 -2315 -87 -37 -319 -115 -341 -115 -2 0 -4 1667 -4 3705 l0 3705
28 -6 c15 -3 88 -26 162 -51z m-1560 -3653 c0 -2035 -1 -3700 -3 -3700 -2 0
-41 11 -88 25 -394 118 -767 343 -1074 650 -328 327 -571 707 -759 1184 -398
1009 -432 2316 -89 3421 294 948 861 1653 1595 1983 122 54 359 136 396 137
l22 0 0 -3700z"/>
<path d="M1209 2644 c-562 -101 -928 -542 -990 -1190 -43 -457 99 -897 377
-1164 139 -134 278 -214 461 -265 90 -26 96 -26 355 -23 l263 4 91 31 c451
155 728 516 806 1049 18 129 16 426 -5 544 -55 305 -167 533 -351 716 -167
165 -346 257 -586 298 -113 19 -315 20 -421 0z m389 -288 c223 -61 391 -214
508 -460 87 -184 119 -364 111 -624 -8 -258 -51 -430 -158 -618 -56 -101 -188
-236 -284 -292 -220 -128 -497 -132 -725 -11 -222 118 -380 364 -447 695 -24
123 -24 412 0 539 76 391 267 654 545 751 38 13 94 28 123 33 71 13 260 5 327
-13z"/>
<path d="M6295 2601 c-74 -34 -115 -102 -115 -191 0 -126 83 -210 207 -210 93
1 175 51 202 123 27 70 6 184 -42 235 -57 62 -170 81 -252 43z"/>
<path d="M3722 1910 c-40 -11 -101 -34 -135 -52 -74 -39 -193 -149 -239 -221
l-33 -52 -6 105 c-4 58 -7 126 -8 153 l-1 48 -152 -3 -153 -3 3 -25 c2 -14 6
-433 9 -932 l5 -908 169 0 169 0 0 598 c0 497 3 607 15 655 37 143 137 272
254 330 62 30 72 32 176 32 95 0 116 -3 153 -23 93 -50 159 -134 198 -252 17
-50 19 -112 24 -695 l5 -640 168 -3 167 -2 0 587 c1 653 4 696 61 802 42 80
115 154 192 194 59 31 67 32 177 32 105 0 119 -2 165 -27 58 -30 124 -97 154
-156 11 -22 30 -73 43 -113 22 -73 22 -86 26 -696 l3 -623 170 0 169 0 0 608
c0 647 -5 722 -50 862 -75 226 -224 374 -430 426 -96 24 -260 16 -363 -20
-137 -46 -255 -138 -347 -269 -44 -61 -48 -65 -54 -43 -3 13 -29 58 -57 100
-79 119 -187 196 -324 231 -82 21 -232 19 -323 -5z"/>
<path d="M7850 1920 c-432 -56 -729 -316 -832 -727 -32 -127 -32 -389 0 -516
75 -300 255 -517 512 -620 138 -54 174 -59 434 -55 256 5 309 13 444 69 45 19
53 26 48 43 -3 12 -15 66 -27 121 -12 55 -25 104 -29 108 -4 4 -53 -8 -111
-27 -168 -56 -360 -66 -504 -25 -194 54 -359 231 -416 446 -29 105 -31 295 -6
408 55 242 219 419 448 481 46 13 100 18 194 17 142 0 231 -16 324 -59 30 -13
56 -22 58 -20 11 10 80 262 74 267 -14 15 -154 59 -233 74 -100 19 -289 27
-378 15z"/>
<path d="M9553 1915 c-160 -43 -319 -191 -374 -347 -21 -61 -29 -26 -29 132 0
80 -3 155 -6 168 -6 22 -9 22 -153 22 l-146 0 3 -922 c1 -508 5 -929 7 -935 3
-10 47 -13 174 -13 l170 0 3 578 3 577 28 81 c49 146 136 252 252 310 56 27
68 29 177 29 l118 0 0 161 c0 159 0 162 -22 168 -40 10 -151 5 -205 -9z"/>
<path d="M10730 1923 c-122 -19 -259 -67 -358 -125 -78 -45 -238 -208 -285
-288 -51 -89 -95 -207 -120 -320 -29 -136 -28 -368 1 -498 46 -199 126 -346
260 -474 96 -92 187 -147 308 -187 91 -31 95 -31 301 -31 238 0 297 11 437 81
103 51 158 93 243 183 113 118 177 243 226 435 28 114 31 395 5 511 -24 108
-71 233 -120 314 -54 92 -192 231 -283 284 -79 47 -219 96 -315 111 -62 10
-246 13 -300 4z m231 -263 c193 -36 351 -203 421 -447 20 -68 23 -101 23 -253
0 -204 -10 -254 -81 -399 -126 -257 -384 -375 -632 -290 -126 43 -242 153
-311 292 -66 135 -76 186 -76 392 0 208 15 279 87 417 116 224 330 332 569
288z"/>
<path d="M12965 1916 c-174 -40 -316 -130 -411 -258 -23 -31 -44 -54 -48 -51
-3 4 -6 27 -6 53 0 26 -3 88 -6 138 l-7 92 -151 0 -151 0 3 -922 c1 -508 5
-929 7 -935 3 -10 47 -13 174 -13 l170 0 3 618 c3 611 4 618 26 676 58 155
177 269 326 311 94 27 227 17 310 -24 102 -50 166 -134 207 -271 22 -74 23
-86 27 -693 l3 -617 172 2 172 3 3 555 c2 335 -1 599 -8 666 -21 222 -77 366
-191 487 -123 132 -249 187 -444 193 -80 2 -140 -1 -180 -10z"/>
<path d="M6220 955 l0 -935 173 2 172 3 0 930 0 930 -172 3 -173 2 0 -935z"/>
</g>
</svg>
